<?xml version="1.0" standalone="no"?><!DOCTYPE svg PUBLIC "-//W3C//DTD SVG 1.1//EN" "http://www.w3.org/Graphics/SVG/1.1/DTD/svg11.dtd"><svg class="icon" width="200px" height="200.00px" viewBox="0 0 1024 1024" version="1.1" xmlns="http://www.w3.org/2000/svg"><path d="M1010.457014 23.784853c-9.993636-13.591345-25.583707-21.985999-42.472952-22.785489-13.391472-0.899427-25.283898 2.898154-37.076388 8.394654-39.374925 18.38829-78.849786 36.676643-118.424583 54.765123-34.977725 16.18969-70.055386 32.079571-105.133047 48.169324-20.686826 9.394018-41.273715 18.887971-61.860605 28.381926L528.264092 194.875896c-36.276898 16.789308-72.653731 33.378743-108.930629 50.168051L307.004998 296.81098 194.676532 348.578013 83.947049 399.345682c-13.091663 5.996181-26.383198 11.592617-39.274988 17.988545-8.594527 4.297263-17.788672 8.594527-24.884153 14.890517C8.095354 442.718061 0.999873 457.308769 0.000509 472.898841v9.493954c1.299173 18.987908 10.992999 37.476134 28.481862 48.369197 27.98218 17.488862 55.264805 35.977088 82.84724 53.965632 46.670279 30.580525 93.440494 61.061114 140.210709 91.741576 1.499045 0.999364 3.397836 2.798218 3.597708 4.297263 1.0993 14.490772 1.798854 29.08148 2.698282 43.672188 0.899427 15.789944 1.698918 31.679825 2.498409 47.569706l2.498409 53.76576c0.799491 16.689372 1.798854 33.378743 2.498409 49.968179 0.899427 20.087208 1.598982 40.174415 2.398472 61.360923 0.399745 6.695736 1.299173 14.590708 1.299173 22.48568 0 19.287717 5.996181 35.477407 20.187144 48.968815 18.088481 17.189053 50.068115 21.086571 70.455132 6.295991 21.686189-15.789944 42.472952-32.879061 63.659459-49.468497 21.086571-16.689372 41.97327-33.678552 63.059841-50.367924 21.985999-17.488862 44.271806-34.777852 66.057932-52.466587 5.696372-4.597072 9.993636-4.796945 16.289626-1.299173C605.414959 881.438668 642.391412 901.12613 679.267927 921.113402l110.529611 59.761941c15.789944 8.594527 31.380016 17.388926 47.369833 25.583708 15.190326 7.795036 29.681098 16.789308 48.169324 15.590071 23.485044-1.499045 43.971997-16.989181 52.066842-37.775943 5.196691-13.691281 4.497136-28.082116 6.096118-42.173142 1.299173-11.192872 1.698918-22.48568 2.798218-33.578616 1.499045-16.289626 3.397836-32.579252 4.896881-48.968815 1.0993-11.392745 1.598982-22.785489 2.598346-34.178234 1.598982-17.588799 3.397836-35.177598 4.896881-52.766397 0.999364-10.293445 1.698918-20.686826 2.698282-31.080207 1.598982-17.089117 3.397836-34.27817 4.896881-51.367287 0.999364-10.992999 1.698918-21.985999 2.698282-32.978998 1.598982-17.488862 3.397836-35.077661 4.896881-52.66646 0.999364-10.393381 1.698918-20.686826 2.598346-31.080207 1.598982-16.689372 3.397836-33.378743 4.896881-50.168051 0.999364-10.992999 1.598982-21.985999 2.598346-32.978998 1.598982-16.289626 3.397836-32.579252 4.896881-48.868878 0.999364-11.392745 1.598982-22.885426 2.598345-34.278171 1.499045-17.588799 3.2979-35.077661 4.896882-52.66646 0.999364-10.793127 1.598982-21.586253 2.698281-32.279443 1.598982-16.989181 3.397836-33.778489 4.896882-50.76767 0.999364-10.793127 1.598982-21.586253 2.698282-32.279443 1.598982-17.28899 3.2979-34.677916 4.896881-52.066842 0.999364-10.493317 1.598982-21.086571 2.598345-31.679825 1.598982-15.889881 3.397836-31.779762 4.896882-47.669642 1.0993-11.592617 0.899427-23.385108 2.798218-34.777852 3.697645-17.388926-0.599618-35.277534-11.392745-49.168688z m-76.551249 107.731393c-0.699554 7.195418-1.998727 14.390835-2.598346 21.586253-1.998727 23.884789-3.897518 47.669642-5.796308 71.554431-1.299173 15.690008-2.798218 31.28008-4.297264 46.870152-2.298536 22.985362-4.796945 46.070661-6.995545 69.056022-1.199236 13.291535-1.698918 26.683007-2.99809 39.974543-1.598982 17.888608-3.797582 35.777216-5.4965 53.76576-1.199236 12.591981-1.798854 25.283898-2.998091 37.87588-1.698918 18.488226-3.797582 37.176325-5.496499 55.764487-1.199236 12.292172-1.798854 24.784217-2.998091 37.176324-1.698918 18.887971-3.697645 37.775943-5.4965 56.563979-1.0993 11.892426-1.898791 23.884789-2.99809 35.777215-1.798854 20.087208-23.085298 228.954194-24.584344 247.842165-5.996181-2.898154-11.592617-5.396563-16.989181-8.294717-17.189053-9.294081-34.27817-18.688099-51.56716-27.882244l-126.519428-68.256532c-28.881607-15.490135-57.663278-31.28008-86.644821-46.670278-20.087208-10.69319-52.166778-8.994272-70.255259 5.496499-28.082116 22.685553-56.863787 44.571615-85.245713 66.95736-22.48568 17.788672-44.771488 35.977088-67.856786 54.56525-0.599618-6.795672-1.499045-12.991726-1.698918-19.087844-1.0993-24.68428-1.898791-49.468497-2.998091-74.252713-0.799491-18.588162-1.898791-37.076388-2.798218-55.664551-0.999364-19.787399-1.598982-39.574797-2.998091-59.262259-0.699554-11.892426-2.098663-23.684917-4.197327-35.377471-3.397836-17.189053-13.891154-29.980907-27.98218-39.474861-18.887971-12.691917-38.175688-24.884153-57.263532-37.176325l-118.724392-77.050931c-0.899427-0.599618-1.698918-1.499045-3.2979-2.99809 11.892426-5.696372 64.159141-34.378107 77.450677-40.474225 45.171233-20.786762 90.24253-41.773397 135.413763-62.660096 24.884153-11.592617 49.768306-23.185235 74.652459-34.577979 43.971997-20.187144 87.844058-40.174415 131.816055-60.36156 44.771488-20.58689 89.542976-41.273715 134.214527-61.960541l69.056023-31.779762L885.136823 129.917264l50.267987-22.885426c-0.499682 8.794399-0.799491 16.589435-1.499045 24.484408z m-162.896262 152.402944c-14.690644-0.099936-25.283898 3.098027-33.778489 11.292808-6.395927 6.096118-12.392108 12.791854-18.388289 19.387654-16.489499 17.788672-32.879061 35.677279-49.368561 53.465951l-34.777852 37.775943-49.36856 53.46595-34.777852 37.775943c-12.292172 13.391472-24.584344 26.683007-36.976453 39.974543-10.793127 11.692554-21.886062 23.285171-32.779125 34.877789-3.797582 4.097391-7.695099 8.094845-10.992999 12.591981-10.893063 14.290899-13.291535 33.378743-6.29599 49.968178 8.394654 21.786126 31.380016 34.378107 54.265441 29.481225 12.691917-2.598345 22.185871-9.993636 30.480589-19.887335 11.79249-13.99109 24.68428-27.082753 37.076389-40.474224l35.877152-38.875243 35.777216-38.875243 36.176961-39.274988 36.576706-39.574797 36.077025-39.274989c11.892426-12.791854 23.58498-25.78358 35.477407-38.475497 11.292808-11.392745 16.489499-27.382562 13.99109-43.172506-2.798218-23.285171-23.085298-42.572888-44.271806-42.173143z m0 0" /></svg>